<svg width="308" height="349" viewBox="0 0 308 349" fill="none" xmlns="http://www.w3.org/2000/svg">
<rect width="308" height="349" fill="#1E1E1E"/>
<path d="M153.514 348.629L27.9762 313.778L0 0H307.404L279.399 313.73L153.514 348.629Z" fill="#264DE4"/>
<path d="M255.423 293.753L279.354 25.6554H153.702V321.953L255.423 293.753Z" fill="#2965F1"/>
<path d="M64.1342 142.032L67.5829 180.515H153.702V142.032H64.1342ZM57.2031 64.1402L60.7012 102.624H153.702V64.1402H57.2031ZM153.702 241.978L153.533 242.023L110.674 230.45L107.934 199.758H69.3024L74.6935 260.183L153.525 282.066L153.702 282.017V241.978Z" fill="#EBEBEB"/>
<path d="M243.024 142.032L249.971 64.1402H153.57V102.624H207.796L204.295 142.032H153.57V180.515H200.958L196.49 230.426L153.568 242.011V282.048L232.462 260.183L242.085 152.366L243.024 142.032Z" fill="white"/>
</svg>
