<svg width="374" height="198" viewBox="0 0 374 198" fill="none" xmlns="http://www.w3.org/2000/svg">
<rect x="0.5" y="0.5" width="373" height="197" fill="#222222" stroke="white"/>
<rect x="36" y="141" width="300" height="18" rx="9" fill="#F2D226"/>
<rect x="37" y="39" width="300" height="18" rx="9" fill="#F2D226"/>
<path d="M25.2734 113H14.9141V101.844L21.5469 95.6094H33.8047V81.8984H37.9531L44.1641 88.1094V95.7969L37.9531 102.008H25.2734V113ZM25.2734 87.5V92.0234H14.9141V88.1094L21.1484 81.8984H32.1641V87.5H25.2734ZM26.9141 113V107.398H44.1641V113H26.9141ZM203.867 117.688H239.094V122.211H203.867V117.688ZM239.844 113V81.8984H250.203V113H239.844ZM251.844 113V106.789H256.977V102.852H266.375V113H251.844ZM279.922 100.227V113H269.562V81.8984H279.922V94.2266H289.836V100.227H279.922ZM281.562 87.9219V81.8984H297.758V90.8984H288.008V87.9219H281.562ZM281.562 113V106.789H287.398V103.672H297.758V113H281.562ZM302.75 81.8984H313.109V95.7969H322.672V101.914H313.109V113H302.75V81.8984ZM314.75 88.1094V81.8984H330.547V92.2109H320.188V88.1094H314.75ZM340.508 90.2891H351.289V113H340.508V90.2891ZM332.398 81.8984H359.398V88.6719H332.398V81.8984Z" fill="white"/>
<path d="M59.3281 113H55.2031L48.9688 106.789V88.1094L55.2031 81.8984H59.3281V113ZM60.9688 88.1094V81.8984H72.0078L78.2188 88.1094V94.3672H67.8594V88.1094H60.9688ZM60.9688 113V106.789H67.8594V102.242H78.2188V106.789L72.0078 113H60.9688ZM92.8438 106.672H96.7344V113H88.7656L82.4609 106.789V88.1094L88.7656 81.8984H96.7344V88.2031H92.8438V106.672ZM102.336 88.2031H98.375V81.8984H106.414L112.695 88.1094V106.789L106.414 113H98.375V106.672H102.336V88.2031ZM117.031 106.367H120.148V88.5078H117.031V81.8984H133.625V88.5078H130.508V106.367H133.625V113H117.031V106.367ZM168.5 113H157.484L138.641 81.8984H149.586L168.5 113ZM138.641 113V84.8516L147.664 99.6406V113H138.641ZM168.5 81.8984V110.047L159.477 95.1875V81.8984H168.5ZM193.203 113V101.352H179.75L173.516 95.1172V88.1094L179.75 81.8984H183.266V92.9375H197.562L203.586 99.1719V106.789L197.375 113H193.203ZM184.906 87.5V81.8984H197.352L202.742 87.3125V90.6172H193.203V87.5H184.906ZM173.516 103.672H183.875V107.375H191.562V113H178.742L173.516 106.789V103.672Z" fill="#D29F52"/>
</svg>
